<svg xmlns="http://www.w3.org/2000/svg" xmlns:xlink="http://www.w3.org/1999/xlink" width="122.908" height="94.615" viewBox="0 0 122.908 94.615">
  <defs>
    <linearGradient id="linear-gradient" y1="0.49" x2="1" y2="0.49" gradientUnits="objectBoundingBox">
      <stop offset="0" stop-color="#ff9400"/>
      <stop offset="1" stop-color="#d20000"/>
    </linearGradient>
    <linearGradient id="linear-gradient-2" x1="0" y1="0.5" x2="1" y2="0.5" xlink:href="#linear-gradient"/>
    <linearGradient id="linear-gradient-3" y1="0.5" x2="1" y2="0.5" gradientUnits="objectBoundingBox">
      <stop offset="0" stop-color="#d20000"/>
      <stop offset="1" stop-color="#ff9400"/>
    </linearGradient>
  </defs>
  <g id="Groupe_73" data-name="Groupe 73" transform="translate(-227.333 -15.574)">
    <g id="Groupe_69" data-name="Groupe 69">
      <path id="Tracé_1" data-name="Tracé 1" d="M317.193,103.309c-5.525,0-12.3-1.042-20.7-3.185l-3.245-.827V80.846l6.052,2.675a49.526,49.526,0,0,0,8.937,2.895,40.48,40.48,0,0,0,8.957,1.122,18.945,18.945,0,0,0,7.254-1.469,10.644,10.644,0,0,0,4.86-3.725,7.912,7.912,0,0,0,1.627-4.568c0-1.585-.476-4-4.582-6.618-2.513-1.6-8.2-3.518-21.023-3.518h-10.5V27.823h53.057V43.929H312.963v7.307c10.939.3,19.683,2.479,26.016,6.486,7.367,4.659,11.262,11.371,11.262,19.406a22.585,22.585,0,0,1-4.594,13.835,28.9,28.9,0,0,1-12.329,9.194A41.842,41.842,0,0,1,317.193,103.309Z" fill="#fff"/>
    </g>
    <g id="Groupe_70" data-name="Groupe 70">
      <path id="Tracé_2" data-name="Tracé 2" d="M272.389,23.208a1.339,1.339,0,0,1-.495,1.118,2.291,2.291,0,0,1-1.439.389h-1.942V19.53h1.846a2.133,2.133,0,0,1,1.3.354,1.145,1.145,0,0,1,.474.969,1.176,1.176,0,0,1-.747,1.111,1.234,1.234,0,0,1,1,1.244ZM269.2,21.7h1.153a1.5,1.5,0,0,0,.838-.183.676.676,0,0,0,.269-.606.664.664,0,0,0-.262-.574,1.579,1.579,0,0,0-.908-.194H269.2Zm0,2.4h1.249q1.23,0,1.231-.892a.789.789,0,0,0-.286-.677,1.809,1.809,0,0,0-1.034-.214H269.2Z" fill="#fff"/>
      <path id="Tracé_3" data-name="Tracé 3" d="M285.9,24.715h-3.865V19.53h3.745v.615h-3.059V21.73h2.861v.616h-2.861V24.1H285.9Z" fill="#fff"/>
      <path id="Tracé_4" data-name="Tracé 4" d="M309.67,20.145h-2.812v1.606H309.3v.615h-2.438v2.349h-.685V19.53h3.5Z" fill="#fff"/>
      <path id="Tracé_5" data-name="Tracé 5" d="M320.062,24.715h-.689V19.53h.689Z" fill="#fff"/>
      <path id="Tracé_6" data-name="Tracé 6" d="M334.193,19.53l-2.015,5.185h-.707l-2.017-5.185h.732l1.638,4.446,1.637-4.446Z" fill="#fff"/>
      <path id="Tracé_7" data-name="Tracé 7" d="M347.38,24.715h-3.866V19.53h3.746v.615H344.2V21.73h2.861v.616H344.2V24.1h3.18Z" fill="#fff"/>
    </g>
    <g id="Groupe_72" data-name="Groupe 72">
      <path id="Tracé_8" data-name="Tracé 8" d="M227.333,56.77" fill="none" stroke="#000" stroke-miterlimit="10" stroke-width="0.51"/>
      <path id="Tracé_9" data-name="Tracé 9" d="M241.629,50.5V46.316c0-5.364-2.23-7.724-7.345-7.724h-6.951V58.438h5.64C238.35,58.438,241.629,56.506,241.629,50.5Z" fill="#ea5c1f"/>
      <path id="Tracé_10" data-name="Tracé 10" d="M243.072,84.825V78.281c0-6.972-2.755-9.117-9.312-9.117h-6.427V92.227H235.6C240.448,92.227,243.072,90.4,243.072,84.825Z" fill="#ea5c1f"/>
      <g id="Groupe_71" data-name="Groupe 71">
        <path id="Tracé_11" data-name="Tracé 11" d="M296.817,27.824l-14.456.014v.014l14.854-.015A3.484,3.484,0,0,0,296.817,27.824Z" fill="url(#linear-gradient)"/>
        <path id="Tracé_12" data-name="Tracé 12" d="M300.737,57.919c-8.9-7.2-18.376-1.561-18.376-1.561V38.577H313.01s-.853-.5-2.357-1.229c-.453-.22-.981-.465-1.548-.721a62.041,62.041,0,0,0-14.972-4.61,17.626,17.626,0,0,1,7.564-2.548,10.739,10.739,0,0,0-4.482-1.632l-14.854.015-14.427.014V47.353a43.357,43.357,0,0,1-1.656-4.035C263.069,24.792,251.991,20.2,251.991,20.2c2.1,2.731,4.427,11.071,4.427,11.071-7.55-15.03-13.952-15.7-13.952-15.7,4.176,5.2,5.848,13.317,5.848,13.317-8.447-11.217-13.594-12.91-13.594-12.91,3.412,4.59,3.962,6.219,3.962,6.219-2.424-2.366-7.937-4.052-5.912-3.2.691.291,3.112,4.123,6,9.044,12.022,1,17.285,6.632,17.285,17.092v3c0,7.722-2.885,12.55-9.312,14.695v.047H313.01c-3.876-3.011-18.733-3.763-18.733-3.763C296.43,57.679,300.737,57.919,300.737,57.919Z" fill="url(#linear-gradient-2)"/>
      </g>
      <path id="Tracé_13" data-name="Tracé 13" d="M282.361,72.323c13.495,4.561,18.232-1.8,18.232-1.8-1.866.24-6.46-1.08-6.46-1.08a61.253,61.253,0,0,0,18.877-6.56H246.745v.168c7.737,2.145,10.754,7.722,10.754,15.66v6.436c0,7.814-3.41,13.179-10.05,15.85a36.837,36.837,0,0,1-8.255.866c-1.381,2.183-2.419,3.637-2.833,3.811-2.025.852,3.488-.834,5.912-3.2,0,0-.55,1.629-3.962,6.219,0,0,3.148-1.053,8.545-6.847a29.441,29.441,0,0,1-4.39,8.344s6.4-.67,13.952-15.7c0,0-2.327,8.34-4.427,11.07,0,0,11.078-4.589,14.287-23.115a36.292,36.292,0,0,1,1.656-3.634v24.142l14.427.013,14.456.014s1.853.14,4.88-1.645a17.626,17.626,0,0,1-7.564-2.548,62.5,62.5,0,0,0,16.52-5.331c1.5-.731,2.357-1.229,2.357-1.229H282.361Z" fill="url(#linear-gradient-3)"/>
    </g>
  </g>
</svg>
