<svg xmlns="http://www.w3.org/2000/svg" xmlns:xlink="http://www.w3.org/1999/xlink" width="122.907" height="94.615" viewBox="0 0 122.907 94.615">
  <defs>
    <linearGradient id="linear-gradient" y1="0.497" x2="1" y2="0.497" gradientUnits="objectBoundingBox">
      <stop offset="0" stop-color="#ff9400"/>
      <stop offset="1" stop-color="#d20000"/>
    </linearGradient>
    <linearGradient id="linear-gradient-2" x1="0" y1="0.5" x2="1" y2="0.5" xlink:href="#linear-gradient"/>
    <linearGradient id="linear-gradient-3" y1="0.5" x2="1" y2="0.5" gradientUnits="objectBoundingBox">
      <stop offset="0" stop-color="#d20000"/>
      <stop offset="1" stop-color="#ff9400"/>
    </linearGradient>
  </defs>
  <g id="Groupe_73" data-name="Groupe 73" transform="translate(-16.079)">
    <g id="Groupe_69" data-name="Groupe 69">
      <path id="Tracé_1" data-name="Tracé 1" d="M105.939,87.735c-5.525,0-12.3-1.043-20.7-3.185l-3.246-.828V65.271l6.053,2.676a49.606,49.606,0,0,0,8.937,2.894,40.471,40.471,0,0,0,8.957,1.123,18.936,18.936,0,0,0,7.253-1.469,10.64,10.64,0,0,0,4.86-3.725A7.912,7.912,0,0,0,119.68,62.2c0-1.586-.476-4-4.583-6.618-2.512-1.6-8.2-3.519-21.022-3.519h-10.5V12.248h53.057V28.355H101.709v7.306c10.939.3,19.682,2.479,26.015,6.486,7.367,4.66,11.262,11.372,11.262,19.407a22.579,22.579,0,0,1-4.593,13.834,28.889,28.889,0,0,1-12.33,9.194A41.838,41.838,0,0,1,105.939,87.735Z" fill="#1d1d1b"/>
    </g>
    <g id="Groupe_70" data-name="Groupe 70">
      <path id="Tracé_2" data-name="Tracé 2" d="M61.136,7.633a1.339,1.339,0,0,1-.5,1.119,2.3,2.3,0,0,1-1.44.388H57.26V3.956H59.1a2.139,2.139,0,0,1,1.3.353,1.146,1.146,0,0,1,.474.97,1.175,1.175,0,0,1-.746,1.11,1.234,1.234,0,0,1,1,1.244ZM57.945,6.128H59.1a1.508,1.508,0,0,0,.837-.183.676.676,0,0,0,.269-.606.666.666,0,0,0-.262-.575,1.58,1.58,0,0,0-.908-.193h-1.09Zm0,2.4h1.249q1.231,0,1.231-.892a.789.789,0,0,0-.285-.676A1.807,1.807,0,0,0,59.1,6.743h-1.16Z"/>
      <path id="Tracé_3" data-name="Tracé 3" d="M74.647,9.14H70.782V3.956h3.745v.615H71.468V6.156h2.861v.615H71.468V8.525h3.179Z"/>
      <path id="Tracé_4" data-name="Tracé 4" d="M98.416,4.571H95.6V6.176h2.438v.616H95.6V9.14h-.685V3.956h3.5Z"/>
      <path id="Tracé_5" data-name="Tracé 5" d="M108.808,9.14h-.689V3.956h.689Z"/>
      <path id="Tracé_6" data-name="Tracé 6" d="M122.939,3.956,120.924,9.14h-.707L118.2,3.956h.732L120.57,8.4l1.637-4.445Z"/>
      <path id="Tracé_7" data-name="Tracé 7" d="M136.126,9.14h-3.865V3.956h3.745v.615h-3.06V6.156h2.861v.615h-2.861V8.525h3.18Z"/>
    </g>
    <g id="Groupe_72" data-name="Groupe 72">
      <path id="Tracé_8" data-name="Tracé 8" d="M16.079,41.195" fill="none" stroke="#000" stroke-miterlimit="10" stroke-width="0.51"/>
      <path id="Tracé_9" data-name="Tracé 9" d="M30.374,34.926V30.742c0-5.364-2.229-7.724-7.344-7.724H16.079V42.863h5.639C27.1,42.863,30.374,40.932,30.374,34.926Z" fill="#ea5c1f"/>
      <path id="Tracé_10" data-name="Tracé 10" d="M31.817,69.251V62.707c0-6.973-2.754-9.118-9.311-9.118H16.079V76.652h8.262C29.194,76.652,31.817,74.828,31.817,69.251Z" fill="#ea5c1f"/>
      <g id="Groupe_71" data-name="Groupe 71">
        <path id="Tracé_11" data-name="Tracé 11" d="M85.563,12.25l-14.456.013v.014l14.854-.015A3.3,3.3,0,0,0,85.563,12.25Z" fill="url(#linear-gradient)"/>
        <path id="Tracé_12" data-name="Tracé 12" d="M89.483,42.344c-8.9-7.2-18.376-1.56-18.376-1.56V23h30.649s-.854-.5-2.358-1.23c-.453-.22-.98-.465-1.547-.72a62.04,62.04,0,0,0-14.972-4.61A17.626,17.626,0,0,1,90.443,13.9a10.732,10.732,0,0,0-4.482-1.633l-14.854.015-14.428.015V31.778c-1.073-2.305-1.656-4.034-1.656-4.034C51.814,9.217,40.737,4.628,40.737,4.628c2.1,2.731,4.427,11.071,4.427,11.071C37.614.67,31.212,0,31.212,0c4.176,5.2,5.848,13.317,5.848,13.317C28.613,2.1,23.466.406,23.466.406c3.411,4.59,3.962,6.22,3.962,6.22C25,4.259,19.491,2.573,21.516,3.426c.691.291,3.112,4.123,6,9.043C39.539,13.468,44.8,19.1,44.8,29.562v3c0,7.722-2.885,12.55-9.312,14.695v.046h66.266c-3.876-3.01-18.734-3.762-18.734-3.762C85.176,42.1,89.483,42.344,89.483,42.344Z" fill="url(#linear-gradient-2)"/>
      </g>
      <path id="Tracé_13" data-name="Tracé 13" d="M71.107,56.748c13.495,4.562,18.232-1.8,18.232-1.8-1.867.24-6.46-1.08-6.46-1.08a61.251,61.251,0,0,0,18.877-6.561H35.49v.169c7.738,2.145,10.754,7.722,10.754,15.659v6.437c0,7.813-3.41,13.179-10.049,15.849a36.9,36.9,0,0,1-8.255.867c-1.381,2.183-2.42,3.636-2.833,3.81-2.025.853,3.487-.833,5.912-3.2,0,0-.55,1.63-3.962,6.22,0,0,3.147-1.053,8.545-6.847a29.479,29.479,0,0,1-4.39,8.344s6.4-.67,13.952-15.7c0,0-2.327,8.34-4.427,11.071,0,0,11.077-4.589,14.286-23.116a36.7,36.7,0,0,1,1.656-3.634V87.378l14.428.014,14.456.014s1.852.14,4.88-1.646a17.632,17.632,0,0,1-7.564-2.547A62.508,62.508,0,0,0,99.4,77.882c1.5-.731,2.358-1.23,2.358-1.23H71.107Z" fill="url(#linear-gradient-3)"/>
    </g>
  </g>
</svg>
